<svg width="120" height="42" viewBox="0 0 120 42" fill="none" xmlns="http://www.w3.org/2000/svg">
<g filter="url(#filter0_d)">
<g filter="url(#filter1_d)">
<rect x="12" y="10.6667" width="96" height="21.3333" fill="black" fill-opacity="0.01"/>
</g>
<rect x="4" width="112" height="32" rx="4" fill="#5333FF"/>
<mask id="mask0" mask-type="alpha" maskUnits="userSpaceOnUse" x="4" y="0" width="112" height="32">
<rect x="4" width="112" height="32" rx="4" fill="white"/>
</mask>
<g mask="url(#mask0)">
</g>
<path d="M45.5955 15.668C46.1475 15.788 46.5715 16.028 46.8675 16.388C47.1715 16.74 47.3235 17.196 47.3235 17.756C47.3235 18.476 47.0555 19.032 46.5195 19.424C45.9915 19.808 45.2075 20 44.1675 20H40.3035V11.6H43.9275C44.8635 11.6 45.5875 11.788 46.0995 12.164C46.6195 12.54 46.8795 13.072 46.8795 13.76C46.8795 14.224 46.7635 14.62 46.5315 14.948C46.3075 15.268 45.9955 15.508 45.5955 15.668ZM41.1915 12.332V15.38H43.8675C44.5475 15.38 45.0715 15.252 45.4395 14.996C45.8075 14.732 45.9915 14.352 45.9915 13.856C45.9915 13.36 45.8075 12.984 45.4395 12.728C45.0715 12.464 44.5475 12.332 43.8675 12.332H41.1915ZM44.1555 19.268C44.9075 19.268 45.4755 19.14 45.8595 18.884C46.2435 18.628 46.4355 18.228 46.4355 17.684C46.4355 16.636 45.6755 16.112 44.1555 16.112H41.1915V19.268H44.1555ZM54.8584 13.688V20H54.0424V18.848C53.8184 19.232 53.5104 19.532 53.1184 19.748C52.7264 19.956 52.2784 20.06 51.7744 20.06C50.9504 20.06 50.2984 19.832 49.8184 19.376C49.3464 18.912 49.1104 18.236 49.1104 17.348V13.688H49.9624V17.264C49.9624 17.928 50.1264 18.432 50.4544 18.776C50.7824 19.12 51.2504 19.292 51.8584 19.292C52.5224 19.292 53.0464 19.092 53.4304 18.692C53.8144 18.284 54.0064 17.72 54.0064 17V13.688H54.8584ZM60.5686 19.616C60.4086 19.76 60.2086 19.872 59.9686 19.952C59.7366 20.024 59.4926 20.06 59.2366 20.06C58.6446 20.06 58.1886 19.9 57.8686 19.58C57.5486 19.26 57.3886 18.808 57.3886 18.224V14.408H56.2606V13.688H57.3886V12.308H58.2406V13.688H60.1606V14.408H58.2406V18.176C58.2406 18.552 58.3326 18.84 58.5166 19.04C58.7086 19.232 58.9806 19.328 59.3326 19.328C59.5086 19.328 59.6766 19.3 59.8366 19.244C60.0046 19.188 60.1486 19.108 60.2686 19.004L60.5686 19.616ZM65.2796 19.616C65.1196 19.76 64.9196 19.872 64.6796 19.952C64.4476 20.024 64.2036 20.06 63.9476 20.06C63.3556 20.06 62.8996 19.9 62.5796 19.58C62.2596 19.26 62.0996 18.808 62.0996 18.224V14.408H60.9716V13.688H62.0996V12.308H62.9516V13.688H64.8716V14.408H62.9516V18.176C62.9516 18.552 63.0436 18.84 63.2276 19.04C63.4196 19.232 63.6916 19.328 64.0436 19.328C64.2196 19.328 64.3876 19.3 64.5476 19.244C64.7156 19.188 64.8596 19.108 64.9796 19.004L65.2796 19.616ZM69.1879 20.06C68.5799 20.06 68.0319 19.924 67.5439 19.652C67.0559 19.372 66.6719 18.988 66.3919 18.5C66.1119 18.012 65.9719 17.46 65.9719 16.844C65.9719 16.228 66.1119 15.676 66.3919 15.188C66.6719 14.7 67.0559 14.32 67.5439 14.048C68.0319 13.776 68.5799 13.64 69.1879 13.64C69.7959 13.64 70.3439 13.776 70.8319 14.048C71.3199 14.32 71.6999 14.7 71.9719 15.188C72.2519 15.676 72.3919 16.228 72.3919 16.844C72.3919 17.46 72.2519 18.012 71.9719 18.5C71.6999 18.988 71.3199 19.372 70.8319 19.652C70.3439 19.924 69.7959 20.06 69.1879 20.06ZM69.1879 19.304C69.6359 19.304 70.0359 19.204 70.3879 19.004C70.7479 18.796 71.0279 18.504 71.2279 18.128C71.4279 17.752 71.5279 17.324 71.5279 16.844C71.5279 16.364 71.4279 15.936 71.2279 15.56C71.0279 15.184 70.7479 14.896 70.3879 14.696C70.0359 14.488 69.6359 14.384 69.1879 14.384C68.7399 14.384 68.3359 14.488 67.9759 14.696C67.6239 14.896 67.3439 15.184 67.1359 15.56C66.9359 15.936 66.8359 16.364 66.8359 16.844C66.8359 17.324 66.9359 17.752 67.1359 18.128C67.3439 18.504 67.6239 18.796 67.9759 19.004C68.3359 19.204 68.7399 19.304 69.1879 19.304ZM77.3474 13.64C78.1394 13.64 78.7674 13.872 79.2314 14.336C79.7034 14.792 79.9394 15.46 79.9394 16.34V20H79.0874V16.424C79.0874 15.768 78.9234 15.268 78.5954 14.924C78.2674 14.58 77.7994 14.408 77.1914 14.408C76.5114 14.408 75.9714 14.612 75.5714 15.02C75.1794 15.42 74.9834 15.976 74.9834 16.688V20H74.1314V13.688H74.9474V14.852C75.1794 14.468 75.4994 14.172 75.9074 13.964C76.3234 13.748 76.8034 13.64 77.3474 13.64Z" fill="white"/>
</g>
<defs>
<filter id="filter0_d" x="0" y="0" width="120" height="40" filterUnits="userSpaceOnUse" color-interpolation-filters="sRGB">
<feFlood flood-opacity="0" result="BackgroundImageFix"/>
<feColorMatrix in="SourceAlpha" type="matrix" values="0 0 0 0 0 0 0 0 0 0 0 0 0 0 0 0 0 0 127 0"/>
<feOffset dy="4"/>
<feGaussianBlur stdDeviation="2"/>
<feColorMatrix type="matrix" values="0 0 0 0 0 0 0 0 0 0 0 0 0 0 0 0 0 0 0.25 0"/>
<feBlend mode="normal" in2="BackgroundImageFix" result="effect1_dropShadow"/>
<feBlend mode="normal" in="SourceGraphic" in2="effect1_dropShadow" result="shape"/>
</filter>
<filter id="filter1_d" x="4" y="4.66667" width="112" height="37.3333" filterUnits="userSpaceOnUse" color-interpolation-filters="sRGB">
<feFlood flood-opacity="0" result="BackgroundImageFix"/>
<feColorMatrix in="SourceAlpha" type="matrix" values="0 0 0 0 0 0 0 0 0 0 0 0 0 0 0 0 0 0 127 0"/>
<feOffset dy="2"/>
<feGaussianBlur stdDeviation="4"/>
<feColorMatrix type="matrix" values="0 0 0 0 0.027451 0 0 0 0 0.0705882 0 0 0 0 0.145098 0 0 0 0.01 0"/>
<feBlend mode="normal" in2="BackgroundImageFix" result="effect1_dropShadow"/>
<feBlend mode="normal" in="SourceGraphic" in2="effect1_dropShadow" result="shape"/>
</filter>
</defs>
</svg>
